# xmcd
#
# Track frame offsets:
#	150
#	10612
#	21850
#	38087
#	50600
#	68537
#	83587
#	99200
#	111550
#	124862
#	141725
#	149837
#	160912
#	175200
#	189912
#	201800
#
# Disc length: 2901 seconds
#
# Revision: 0
# Processed by: cddbd v1.4PL0 Copyright (c) Steve Scherf et al.
# Submitted via: dBpowerAMP V4.0
#
DISCID=dd0b5310
DTITLE=Kitten - Yodelling Sweetheart
DYEAR=1900
DGENRE=
TTITLE0=He Taught Me To Yodel
TTITLE1=I'm Still Singing Country Music
TTITLE2=Send Me The Pillow You Dream On
TTITLE3=Your Cheating Heart
TTITLE4=Have I Told You Lately That I Love You
TTITLE5=China Doll
TTITLE6=Mother, Pal and Sweetheart
TTITLE7=Don't Run Away And Hide
TTITLE8=Cotton Fields
TTITLE9=Don't Let Me Cross Over
TTITLE10=It's A Small World
TTITLE11=Cattle Call
TTITLE12=Blue Eyes Crying In The Rain
TTITLE13=Daddy Was A Yodelling Cowboy
TTITLE14=Down The Trail Of Aching Hearts
TTITLE15=Rockin' Over River
EXTD=Lucky Country (The Best Of Aussie and Kiwi Country).
EXTT0=
EXTT1=
EXTT2=
EXTT3=
EXTT4=
EXTT5=
EXTT6=
EXTT7=
EXTT8=
EXTT9=
EXTT10=
EXTT11=
EXTT12=
EXTT13=
EXTT14=
EXTT15=
PLAYORDER=
